<mxfile host="app.diagrams.net" modified="2023-03-14T06:38:56.810Z" agent="5.0 (Windows NT 10.0; Win64; x64) AppleWebKit/537.36 (KHTML, like Gecko) Chrome/111.0.0.0 Safari/537.36" etag="9QkOUjscyEz2gTgKkRcm" version="20.2.7" type="github">
  <diagram id="Jd0BYn0F5pYh7yF8uxCf" name="Page-1">
    <mxGraphModel dx="1422" dy="762" grid="1" gridSize="10" guides="1" tooltips="1" connect="1" arrows="1" fold="1" page="1" pageScale="1" pageWidth="827" pageHeight="1169" math="0" shadow="0">
      <root>
        <mxCell id="0" />
        <mxCell id="1" parent="0" />
        <mxCell id="R-Q4wHUZK2M5rW0TcGqR-4" value="" style="edgeStyle=orthogonalEdgeStyle;rounded=0;orthogonalLoop=1;jettySize=auto;html=1;" edge="1" parent="1" source="R-Q4wHUZK2M5rW0TcGqR-1" target="R-Q4wHUZK2M5rW0TcGqR-2">
          <mxGeometry relative="1" as="geometry" />
        </mxCell>
        <mxCell id="R-Q4wHUZK2M5rW0TcGqR-1" value="管理员发布预约" style="rounded=1;whiteSpace=wrap;html=1;" vertex="1" parent="1">
          <mxGeometry x="294" y="40" width="120" height="60" as="geometry" />
        </mxCell>
        <mxCell id="R-Q4wHUZK2M5rW0TcGqR-8" value="" style="edgeStyle=orthogonalEdgeStyle;rounded=0;orthogonalLoop=1;jettySize=auto;html=1;" edge="1" parent="1" source="R-Q4wHUZK2M5rW0TcGqR-2" target="R-Q4wHUZK2M5rW0TcGqR-7">
          <mxGeometry relative="1" as="geometry" />
        </mxCell>
        <mxCell id="R-Q4wHUZK2M5rW0TcGqR-2" value="用户进行预约" style="rounded=1;whiteSpace=wrap;html=1;" vertex="1" parent="1">
          <mxGeometry x="294" y="210" width="120" height="60" as="geometry" />
        </mxCell>
        <mxCell id="R-Q4wHUZK2M5rW0TcGqR-10" value="" style="edgeStyle=orthogonalEdgeStyle;rounded=0;orthogonalLoop=1;jettySize=auto;html=1;" edge="1" parent="1" source="R-Q4wHUZK2M5rW0TcGqR-7">
          <mxGeometry relative="1" as="geometry">
            <mxPoint x="454" y="400" as="targetPoint" />
          </mxGeometry>
        </mxCell>
        <mxCell id="R-Q4wHUZK2M5rW0TcGqR-14" value="" style="edgeStyle=orthogonalEdgeStyle;rounded=0;orthogonalLoop=1;jettySize=auto;html=1;" edge="1" parent="1" source="R-Q4wHUZK2M5rW0TcGqR-7">
          <mxGeometry relative="1" as="geometry">
            <mxPoint x="254" y="400" as="targetPoint" />
          </mxGeometry>
        </mxCell>
        <mxCell id="R-Q4wHUZK2M5rW0TcGqR-7" value="预约结果" style="rhombus;whiteSpace=wrap;html=1;" vertex="1" parent="1">
          <mxGeometry x="314" y="360" width="80" height="80" as="geometry" />
        </mxCell>
        <mxCell id="R-Q4wHUZK2M5rW0TcGqR-11" value="" style="edgeStyle=orthogonalEdgeStyle;rounded=0;orthogonalLoop=1;jettySize=auto;html=1;" edge="1" parent="1" target="R-Q4wHUZK2M5rW0TcGqR-7">
          <mxGeometry relative="1" as="geometry">
            <mxPoint x="454" y="400" as="sourcePoint" />
          </mxGeometry>
        </mxCell>
        <mxCell id="R-Q4wHUZK2M5rW0TcGqR-12" value="预约失败" style="text;html=1;align=center;verticalAlign=middle;resizable=0;points=[];autosize=1;strokeColor=none;fillColor=none;" vertex="1" parent="1">
          <mxGeometry x="385" y="365" width="70" height="30" as="geometry" />
        </mxCell>
        <mxCell id="R-Q4wHUZK2M5rW0TcGqR-17" value="" style="edgeStyle=orthogonalEdgeStyle;rounded=0;orthogonalLoop=1;jettySize=auto;html=1;" edge="1" parent="1" target="R-Q4wHUZK2M5rW0TcGqR-16">
          <mxGeometry relative="1" as="geometry">
            <mxPoint x="194" y="430" as="sourcePoint" />
            <Array as="points">
              <mxPoint x="190" y="430" />
            </Array>
          </mxGeometry>
        </mxCell>
        <mxCell id="R-Q4wHUZK2M5rW0TcGqR-15" value="预约成功" style="text;html=1;align=center;verticalAlign=middle;resizable=0;points=[];autosize=1;strokeColor=none;fillColor=none;" vertex="1" parent="1">
          <mxGeometry x="255" y="375" width="70" height="30" as="geometry" />
        </mxCell>
        <mxCell id="R-Q4wHUZK2M5rW0TcGqR-16" value="生成预约二维码待管理员扫码核销" style="whiteSpace=wrap;html=1;" vertex="1" parent="1">
          <mxGeometry x="130" y="555" width="120" height="60" as="geometry" />
        </mxCell>
        <mxCell id="R-Q4wHUZK2M5rW0TcGqR-21" value="" style="edgeStyle=orthogonalEdgeStyle;rounded=0;orthogonalLoop=1;jettySize=auto;html=1;" edge="1" parent="1" source="R-Q4wHUZK2M5rW0TcGqR-18" target="R-Q4wHUZK2M5rW0TcGqR-20">
          <mxGeometry relative="1" as="geometry">
            <Array as="points">
              <mxPoint x="195" y="340" />
              <mxPoint x="195" y="340" />
            </Array>
          </mxGeometry>
        </mxCell>
        <mxCell id="R-Q4wHUZK2M5rW0TcGqR-18" value="签到" style="triangle;whiteSpace=wrap;html=1;" vertex="1" parent="1">
          <mxGeometry x="184" y="360" width="70" height="80" as="geometry" />
        </mxCell>
        <mxCell id="R-Q4wHUZK2M5rW0TcGqR-20" value="扫描对应的签到二维码签到" style="whiteSpace=wrap;html=1;" vertex="1" parent="1">
          <mxGeometry x="135" y="210" width="120" height="60" as="geometry" />
        </mxCell>
        <mxCell id="R-Q4wHUZK2M5rW0TcGqR-22" value="预约人数已满或预约已截止" style="text;html=1;align=center;verticalAlign=middle;resizable=0;points=[];autosize=1;strokeColor=none;fillColor=none;" vertex="1" parent="1">
          <mxGeometry x="455" y="385" width="170" height="30" as="geometry" />
        </mxCell>
      </root>
    </mxGraphModel>
  </diagram>
</mxfile>
